/* XPM */
static char *result[] = {
/* columns rows colors chars-per-pixel */
"64 64 167 2 ",
"   c #3E2436",
".  c #45283C",
"X  c #4B2B3A",
"o  c #502E38",
"O  c #543037",
"+  c #5B3435",
"@  c #523739",
"#  c #613633",
"$  c #663931",
"%  c #6A3E37",
"&  c #6D433B",
"*  c #3F684B",
"=  c #3E734E",
"-  c #5D4455",
";  c #714840",
":  c #764F48",
">  c #7E5A54",
",  c #446047",
"<  c #407651",
"1  c #427A53",
"2  c #487A57",
"3  c #4C7D5F",
"4  c #735E67",
"5  c #4E7F61",
"6  c #83615D",
"7  c #458157",
"8  c #468459",
"9  c #4A845B",
"0  c #498A5D",
"q  c #4A8556",
"w  c #57995F",
"e  c #599A5E",
"r  c #619F5C",
"t  c #6DA859",
"y  c #61A05C",
"u  c #72AA57",
"i  c #75AD5E",
"p  c #7AB055",
"a  c #7EB25D",
"s  c #4C8D60",
"d  c #578966",
"f  c #568669",
"g  c #4D9262",
"h  c #509466",
"j  c #55946B",
"k  c #5D8A75",
"l  c #5F9675",
"z  c #5C9B71",
"x  c #5F9C78",
"c  c #658F71",
"v  c #6D9B75",
"b  c #639479",
"n  c #68927F",
"m  c #6A9C7F",
"M  c #679675",
"N  c #6FA863",
"B  c #67A264",
"V  c #76AC69",
"C  c #6FA67F",
"Z  c #6BA571",
"A  c #74AA75",
"S  c #71A879",
"D  c #88B86C",
"F  c #8BB978",
"G  c #90BD76",
"H  c #679F82",
"J  c #6F9D81",
"K  c #6D9688",
"L  c #709982",
"P  c #71998B",
"I  c #66A181",
"U  c #6BA385",
"Y  c #6EA588",
"T  c #73A482",
"R  c #73A984",
"E  c #7EAE81",
"W  c #74A28B",
"Q  c #7EA289",
"!  c #7AAD8A",
"~  c #7FB182",
"^  c #7EA59E",
"/  c #7AAC99",
"(  c #7AA796",
")  c #8E8688",
"_  c #A09F9F",
"`  c #88B683",
"'  c #95BE8D",
"]  c #88B696",
"[  c #8BB890",
"{  c #85B497",
"}  c #93BB94",
"|  c #91BC9E",
" . c #82ACA2",
".. c #87B4A7",
"X. c #97B4A8",
"o. c #9AB7BD",
"O. c #99BFB8",
"+. c #9AB6B5",
"@. c #A0A0A0",
"#. c gray",
"$. c #A6CA8E",
"%. c #A7CB91",
"&. c #9DC3A8",
"*. c #ADCEA4",
"=. c #A6C8A8",
"-. c #AFCEAE",
";. c #A0C5AB",
":. c #ABCAB5",
">. c #A4C4BA",
",. c #AFCEB8",
"<. c #AFC5B5",
"1. c #B0CFB9",
"2. c #B4D1BD",
"3. c #C5DCB6",
"4. c #9CB8C2",
"5. c #9FC2C1",
"6. c #A2C4C9",
"7. c #B1CBC5",
"8. c #BDD2C4",
"9. c #B9D4C5",
"0. c #AAC4D2",
"q. c #B5CDD5",
"w. c #B9D2D7",
"e. c #BAD3DB",
"r. c #CECCCD",
"t. c #C8C1C4",
"y. c #D5CFCE",
"u. c #C1D6CF",
"i. c #C4DBCB",
"p. c #C1D8D7",
"a. c #CBDDD4",
"s. c #CADEDB",
"d. c #DFDDDD",
"f. c #CEE1C8",
"g. c #CDE0D7",
"h. c #D6E5DB",
"j. c #CEDEE4",
"k. c #CCDDEB",
"l. c #C6D9E5",
"z. c #D2DFEA",
"x. c #C4D6F3",
"c. c #CADBF5",
"v. c #CBDBFC",
"b. c #D1DFFC",
"n. c #D5E4E4",
"m. c #D4E2EB",
"M. c #DEE7EB",
"N. c #DBE9E0",
"B. c #D4E2F6",
"V. c #D5E2FD",
"C. c #DBE6FD",
"Z. c #DEE8FD",
"A. c #DAE5F5",
"S. c #E5E5E5",
"D. c gray91",
"F. c #E0EBED",
"G. c #EBF3EE",
"H. c #E4ECFD",
"J. c #E8EFFE",
"K. c #EDF3FE",
"L. c #E8F1F2",
"P. c #F5F9F6",
"I. c #F8FBF7",
"U. c #F2F6FE",
"Y. c #F6F9FF",
"T. c #FFFFFF",
"R. c None",
/* pixels */
"T.T.T.T.T.T.T.T.T.T.T.T.T.T.T.T.T.T.T.T.T.T.T.T.T.T.T.T.T.T.T.T.T.T.T.T.T.T.T.T.T.T.T.T.T.T.T.T.T.T.T.T.T.T.T.T.T.T.T.T.T.T.T.T.",
"T.T.T.T.T.T.T.T.T.T.T.T.T.T.T.T.T.T.T.T.T.T.T.T.T.T.T.T.T.T.T.T.T.T.T.T.T.T.T.T.T.T.T.T.T.T.T.T.T.T.T.T.T.T.T.T.T.T.T.T.T.T.T.T.",
"T.T.T.T.T.T.T.T.T.T.T.T.T.T.T.T.T.T.T.T.T.T.T.T.T.T.T.T.T.T.T.T.T.T.T.T.T.T.T.T.T.T.T.T.T.T.T.T.T.T.T.T.T.T.T.T.T.T.T.T.T.T.T.T.",
"T.T.T.T.T.T.T.T.T.T.T.T.T.T.T.T.T.T.T.T.T.T.T.T.T.T.T.T.T.T.T.T.T.T.T.T.R.T.T.R.T.T.T.T.T.T.T.T.T.T.T.T.T.T.T.T.T.T.T.T.T.T.T.T.",
"T.T.T.T.T.T.T.T.T.T.T.T.T.T.T.T.T.T.T.T.T.T.T.T.T.T.R.T.H.V.R.T.T.T.T.R.T.H.C.H.R.T.T.T.T.T.T.T.T.T.T.T.T.T.T.T.T.T.T.T.T.T.T.T.",
"T.C.R.T.T.T.T.T.T.T.T.T.T.R.v.v.v.V.T.T.T.T.T.T.T.R.Z.C.U.U.v.R.T.T.T.q s.T.T.Y.Z.R.T.T.T.R.v.b.C.C.R.R.T.T.T.T.T.T.T.T.T.T.R.R.",
"Z.Y.C.Z.K.R.T.T.T.T.T.T.R.v.K.T.T.K.v.R.T.T.T.T.R.C.Z.U.Z.b.K.C.R.T.R.a.h.A Y.T.T.v.T.T.v.v.J.T.T.T.v.v.T.T.T.T.T.T.T.T.T.R.Z.Z.",
"U.V.V.U.C.Y.T.T.T.T.T.R.C.T.T.T.T.v.v.V.R.T.T.R.1 6.T.T.T.T.T.U.Z.R.T U t =./ n.K.K T.v.V.T.T.T.T.v.v.C.v.T.T.T.T.T.T.T.R.V.T.T.",
"Z.Z.U.T.T.g T.T.T.T.g Z.T.T.T.v.v.v.T.T.v.g T.d } s.K.f.G.T.T.T.K.Z.L.E u.9.7.j.n < g b.T.T.T.v.v.v.T.Y.v.g T.T.T.T.T.g i.K.T.U.",
"T.T.T.T.T.T.g T.T.T.= g v.T.T.T.T.T.T.T.T.b.g h.U.Z.' y f.J.T.T.T.U.e.V l b b x 0 d f j v.T.T.T.T.T.T.T.U.b.T.T.T.T.g 1 B V.T.T.",
"i.T.T.T.T.T.P.g T.= g p v.T.T.T.T.T.T.T.T.Y.C.>.e.[ u 8.k.O.Z.T.T.T.0.v S ,.N.n.7.= 0 p v.T.T.T.T.T.T.T.T.U.Z.T.T.T.g :.3.J.n.*.",
"*.K.U.T.T.T.T.g T.= T.T.T.v.p g T.T.T.T.T.T.J.C Z } $.` e R ] Y.q.o.< L { R j.7.d = T.T.T.v.p g T.T.T.T.T.T.C.g T.g <.T.Z.m.` y ",
"l.>.0.U.T.T.Y.4.= T.T.v.v.p g p T.v.T.T.T.T.T.v.A M.K.g.] s.U.z.k < = 2 9 s z j = T.T.v.v.p g p T.v.T.T.T.T.T.v.g g R B.Y F G a.",
"A j z h.T.V.c.< g g v.g p p T.v.v.g v.T.T.T.T.v.1 v K P Q P K m 8 1 = * 1 7 0 * g g v.g p p T.v.v.g v.T.T.T.T.v.= R g x u e i S ",
"g :.P.T.V.3 2 T.g g g p g p g p g g g T.T.v.v.= = g g g g g g g g g ` 8.s c b T.g g g p g p g p g g g T.T.v.v.= = I.D g I.P.I.9.",
"P.A.x.x.f = = T.T.p g T.T.T.T.g g T.T.T.v.= = = = r ] 2.T.T.T.Y.a.F.k. .= X.z.T.T.p g T.T.T.T.g g T.T.T.v.= = = = C.c.a 2 x.x.A.",
"= = = 0 g g = T.v.v.p = v.v.v.T.T.v.v.v.= = = = = = i.i.F.Y.T.z.l ^  .7 = 1 = T.v.v.p = v.v.v.T.T.v.v.v.= = = = = = D p u = = 1 ",
"! ! ! ! ! ! v.v.v.p p p = = = = = = = g g g = = = = g g U e.Z.b 7 8 7 7 = g v.v.v.p p p = = = = = = = g g g = = = = i p g w g z ",
"T.T.T.T.K.8.= g p p p g g g g g g g g g g g g = T.= g g g g g g g g 0 = = 9.= g p p p g g g g g g g g g g g g = T.= &.%.g N ] 2.",
"g.U.T.K.o.= g T.T.g p g p g g T.T.T.T.T.T.T.T.T.v.= = 0 0 g g g g g 7 7 c = g T.T.g p g p g g T.T.T.T.T.T.T.T.T.v.= = T...&.,.2.",
"I w.H.+.= g T.T.T.T.T.g g T.T.T.T.T.T.T.v.= v.v.g = = = 8 7 g g &.i.R 8.= g T.T.T.T.T.g g T.T.T.T.T.T.T.v.= v.v.g = = = ..| g g ",
"g H ( j = g v.v.v.T.T.v.T.g g g v.T.T.v.= g = g = = = = 1 8 g R L.T.h.U.= g v.v.v.T.T.v.T.g g g v.T.T.v.= g = g = = = P g g g g ",
"g g g g = g g g g v.v.g g g g g g v.v.= g = g = g = = K.K.Y.] 1.T.U.z. .= g g g g v.v.g g g g g g v.v.= g = g = g = = 0 1 0 8 g ",
"8 8 g T.T.T.g g = g = g g g g g g g g g g g g g = = = 4.4.m.K.K.K.q.^ T.T.T.g g = g = g g g g g g g g g g g g g = = = 1 s 1 0 8 ",
"7 7 0 T.T.T.g g g = g = g = g g g g g g g g g = g = = = 1 k K K P 5 7 T.T.T.g g g = g = g = g g g g g g g g g = g = = = = = = = ",
"2 s g T.T.T.p g g g = g = g = g = g g g g g g g = = T.= = g = = m g 1 T.T.T.p g g g = g = g = g = g g g g g g g = = T.= = = 2 2 ",
"Y.T.&.v.T.T.g p g g g = = = = = g = g g g T.T.g T.T.T.T.= g g g m R 1.v.T.T.g p g g g = = = = = g = g g g T.T.g T.T.T.T.= ! Y.T.",
"0.z.U.v.T.T.T.g p g g g = = = = = g g g T.T.T.T.T.v.v.v.= U g 9 { k.Z.v.T.T.T.g p g g g = = = = = g g g T.T.T.T.T.v.v.v.= g.0.0.",
"= P 4.= v.T.T.T.g p g g g T.T.T.T.T.g g T.T.T.T.v.g g = = = g ,.] ( P = v.T.T.T.g p g g g T.T.T.T.T.g g T.T.T.T.v.g g = = = s 1 ",
"0 7 = = = T.T.T.T.g p T.T.v.v.v.v.T.T.T.T.T.v.v.= g = = = = s n.-.7 1 = = T.T.T.T.g p T.T.v.v.v.v.T.T.T.T.T.v.v.= g = = = = g g ",
"g g = = v.v.v.T.T.T.T.T.g g = = = v.v.v.v.v.= = g = g = = = = ( P.g = = v.v.v.T.T.T.T.T.g g = = = v.v.v.v.v.= = g = g = = = = g ",
"g = T.T.v.= = v.v.v.v.v.g g g g = = = = = = = g = g = g = = = >.+.= T.T.v.= = v.v.v.v.v.g g g g = = = = = = = g = g = g = = = g ",
"p.= T.T.T.= = = = = = g g g g g g g = = = g g = s = T.= = = = U.} = T.T.T.= = = = = = g g g g g g g = = = g g = g = T.= = = = h.",
"5.= v.T.T.T.p g g g g g g g g g g g g g g g g g T.T.T.v.= = = W j.= v.T.T.T.p g g g g g g g g g g g g g g g g g T.T.T.v.= = = K.",
"g = = v.T.T.T.p g g g g g g g g g g g g g g T.T.T.T.v.= = = = < 7 = = v.T.T.T.p g g g g g g g g g g g g g g T.T.T.T.v.= = = = 6.",
"g = = g v.v.T.T.T.g g T.T.T.T.T.v.g g g g v.v.v.v.v.= = s = T.i.J = = g v.v.T.T.T.g g T.T.T.T.T.v.g g g g v.v.v.v.v.= = g = T.g ",
"s = = = g g v.v.g g v.T.T.T.T.v.g g g g g g g = g = = = = T.v.Y.W = = = g g v.v.g g v.T.T.T.T.v.g g g g g g g = s = = = = T.v.z ",
"= = = = = g g g g g g v.v.v.v.g g g g g g = = = = = = = T.v.= >.= = = = = g g g g g g v.v.v.v.g g g g g g = = = = = = = T.v.< X.",
"= = = = = = = = = g g g g g g g g g g g g g g g g T.T.T.v.= = = = = = = = = = = = g g g g g g g g g g g g g g g g T.T.T.c.= < < ",
"= T.= g g g g g g T.T.g g g g g g g g g g g g g T.T.g g g = = = = T.= g g g g g g T.T.g g g g g g g g g g g g g T.T.g s s = = = ",
"= T.T.T.g = T.v.v.T.T.T.T.T.T.= = = = g p p T.T.T.v.g = = = = = = T.T.T.g = T.v.v.T.T.T.T.T.T.= = = = g p p T.T.T.v.g = = = = = ",
"= T.T.T.T.g = = = v.v.v.T.= = = = = g T.T.T.v.v.g = = = = = = = = T.T.T.T.g = = = v.v.v.T.= = = = = g T.T.T.v.v.s = = = = = = = ",
"= v.T.T.T.g = = = = = = = = g v.v.v.v.v.v.v.v.v.v.= = g g = = = = v.T.T.T.g = = = = = = = = g v.v.v.v.v.v.v.v.v.v.= = g g = = = ",
"= v.T.T.v.v.g = = = = = = = = = = = = = = = = = = g g g g g = = , v.T.T.v.v.g = = = = = = = = = = = = = = = = = = g g g g g = = ",
"= g v.T.T.T.T.g = = = = = = = = = = g g g g T.T.T.T.T.v.g s = = @ g v.T.T.T.T.g = = = = = = = = = = g g g g T.T.T.T.T.v.g g = = ",
"= g g v.v.T.T.T.T.g g g g T.T.g g g g g T.T.T.T.v.v.p g g s = = o g g v.v.T.T.T.T.g g g g T.T.g g g g g T.T.T.T.v.v.p g g g = = ",
"* = g g p v.v.g g g g T.v.v.v.T.T.g T.v.v.v.v.v.g g g g = = = = o = g g p v.v.g g g g T.v.v.v.T.T.g T.v.v.v.v.v.g g g g = = = = ",
". . = = = g g v.v.g g g g g g g g g g g g g g g g g = = = = = o O o = = = g g v.v.g g g g g g g g g g g g g g g g g = = = = = . ",
"X X X = = = = g g g g g g g = = g g g g g g g g = = = = = < o o . D.D.= = = = g g g g g g g = = g g g g g g g g = = = = = = o X ",
"O O + X = = = = = g g g g = = = = = = = = = = = = = = = = 4 ) _ _ <.r.r.= = = = = g g g g = = = = = = = = = = = = = = = = $ $ + ",
"+ o + o o S.= = = = = = = = = = = = = = = = = = = = = = S.S.S.S.S.S.S.S.S.S.= = = = = = = = = = = = = = = = = = = = = = $ $ $ # ",
"$ o + o . S.S.S.= = = = = = . . . . . . = = T.T.T.S.S.S.S.S.S.S.S.S.S.T.T.T.T.T.= = = = = = . . . . . . = = S.S.S.S.S.$ o $ $ $ ",
"$ O + X . 6 S.S.S.= = = . . . . . . . . S.S.S.T.T.T.T.T.T.T.T.T.T.T.T.T.T.T.T.T.T.= = = . . . . . . . . S.S.S.S.S.S.% X X $ $ $ ",
"$ O X . . X > S.S.S.S.$ $ $ $ . $ . $ . S.S.S.S.T.T.T.T.T.T.T.T.T.T.T.T.T.T.T.T.T.T.S.$ $ $ $ . $ . $ . S.S.S.S.S.S.y.r.t.$ + O ",
"O . . . # S.d.S.S.S.S.$ $ $ $ . $ . $ . S.S.S.S.S.T.T.T.T.T.T.T.T.T.T.T.T.T.T.T.T.S.S.$ $ $ $ . $ . $ . S.S.S.S.S.S.S.S.$ $ # o ",
". . . . . # S.S.S.S.S.$ $ $ $ $ $ . $ . . S.S.S.S.S.T.T.T.T.T.T.T.T.T.T.T.T.T.S.S.S.S.$ $ $ $ $ $ . $ . . S.S.S.S.S.S.S.$ . . . ",
"S.S.S.S.4 - S.S.S.S.$ . $ $ $ $ $ . $ . . S.S.S.S.S.S.T.T.T.T.T.T.T.T.T.T.T.D.S.S.S.$ . $ $ $ $ $ . $ . . S.S.S.S.S.S.S.& S.S.S.",
"S.S.S.S.S.S.S.S.S.$ . . $ $ $ $ $ . $ . . $ S.S.S.S.S.S.T.T.T.T.T.T.T.T.T.T.D.D.S.% . . $ $ $ $ $ . $ . . ; D.S.S.S.S.S.D.S.S.S.",
"S.S.S.S.S.S.S.S.S.S.S.S.$ $ . $ $ . . . . . $ S.S.S.S.S.T.T.T.T.T.T.T.T.T.D.D.D.D.D.D.S.$ $ . $ $ . . . . X % D.D.D.D.T.S.S.S.S.",
"T.T.T.T.T.S.S.S.S.S.S.$ $ $ . $ . . . . $ S.S.S.S.S.S.S.T.T.T.T.T.T.T.T.T.D.D.D.D.D.D.$ $ $ . $ . . . . $ D.D.D.D.D.D.D.T.T.T.T.",
"T.T.T.T.T.T.S.S.S.S.S.$ . . . . . . . . . $ S.S.S.S.D.T.T.T.T.T.T.T.T.T.T.D.D.D.D.D.D.$ . . . . . . . . . : D.S.D.D.D.T.T.T.T.T.",
"T.T.T.T.T.T.S.S.S.S.S.$ S.S.S.S.S.S.S.S.. . S.S.S.T.T.T.T.T.T.T.T.T.T.T.T.T.D.D.D.D.D.$ D.D.D.D.D.D.D.D.X . S.S.D.D.T.T.T.T.T.T.",
"T.T.T.T.T.T.T.T.S.S.S.S.S.S.S.S.S.S.S.S.S.S.S.T.T.T.T.T.T.T.T.T.T.T.T.T.T.T.T.D.D.D.D.D.D.D.D.D.D.D.D.D.D.D.D.D.D.D.T.T.T.T.T.T.",
"T.T.T.T.T.T.T.T.T.T.T.S.S.S.S.S.S.S.S.S.S.S.T.T.T.T.T.T.T.T.T.T.T.T.T.T.T.T.T.T.T.T.D.D.D.D.D.D.D.D.D.D.D.D.D.D.T.T.T.T.T.T.T.T."
};
