/* XPM */
static char *result[] = {
/* columns rows colors chars-per-pixel */
"64 128 19 1 ",
"  c black",
". c #010100",
"X c #010101",
"o c #020201",
"O c #030202",
"+ c #060405",
"@ c #070604",
"# c #070606",
"$ c #0B0706",
"% c #9F5A48",
"& c #89635A",
"* c #88AD80",
"= c #FFB592",
"- c #98C68D",
"; c #ECD88E",
": c #E2D991",
"> c #B4C9F4",
", c white",
"< c None",
/* pixels */
"<<<<<<<<<<<<<<<<<<<<<<<<<<<<<<<<<<<<<<<<<<<<<<<<<<<<<<<<<<<<<<<<",
"<<<<<<<<<<<<<<<<<<<<<<<<<<<<<<<<<<<<<<<<<<<<<<<<<<<<<<<<<<<<<<<<",
"<<<<<<<<<<<<<<<<<<<<<<<<<<<<<<<<<<<<<<<<<<<<<<<<<<<<<<<<<<<<<<<<",
"<<<<<<<<<<<<<<<<<<<<<<<<<<<<<<<<<<<<<<<<<<<<<<<<<<<<<<<<<<<<<<<<",
"<<<<<<<<<<<<<<<<<<<<<<<<<<<<<<<<<<<<<<<<<<<<<<<<<<<<<<<<<<<<<<<<",
"<<<<<<<<<<<<<<<<<<<<<<<<<<<<<<<<<<<<<<<<<<<<<<<<<<<<<<<<<<<<<<<<",
"<<<<<<<<<<<<<<<<<<<<<<<<<<<<<<<<<<<<<<<<<<<<<<<<<<<<<<<<<<<<<<<<",
"<<<<<<<<<<<<<<<<<<<<<<<<<<<<<<<<<<<<<<<<<<<<<<<<<<<<<<<<<<<<<<<<",
"<<<<<<<<<<<<<<<<<<<<<<<<<<<<<<<<<<<<<<<<<<<<<<<<<<<<<<<<<<<<<<<<",
"<<<<<<<<<<<<<<<<<<<<<<<<<<<<<<<<<<<<<<<<<<<<<<<<<<<<<<<<<<<<<<<<",
"<<<<<<<<<<<<<<<<<<<<<<<<<<<<<<<<<<<<<<<<<<<<<<<<<<<<<<<<<<<<<<<<",
"<<<<<<<<<<<<<<<<<<<<<<<<<<<<<<<<<<<<<<<<<<<<<<<<<<<<<<<<<<<<<<<<",
"<<<<<<<<<<<<<<<<<<<<<<<<<<<<<<<<<<<<<<<<<<<<<<<<<<<<<<<<<<<<<<<<",
"<<<<<<<<<<<<<<<<<<<<<<<<<<<<<<<<<<<<<<<<<<<<<<<<<<<<<<<<<<<<<<<<",
"<<<<<<<<<<<<<<<<<<<<<<<<<<<<<<<<<<<<<<<<<<<<<<<<<<<<<<<<<<<<<<<<",
"<<<<<<<<<<<<<<<<<<<<<<<<<<<<<<<<<<<<<<<<<<<<<<<<<<<<<<<<<<<<<<<<",
"<<<<<<<<<<<<<<<<<<<<<<<<<<<<<<<<<<<<<<<<<<<<<<<<<<<<<<<<<<<<<<<<",
"<<<<<<<<<<<<<<<<<<<<<<<<<<<<<<<<<<<<<<<<<<<<<<<<<<<<<<<<<<<<<<<<",
"<<<<<<<<<<<<<<<<<<<<<<<<<<<<<<<<<<<<<<<<<<<<<<<<<<<<<<<<<<<<<<<<",
"<<<<<<<<<<<<<<<<<<<<<<<<<<<<<<<<<<<<<<<<<<<<<<<<<<<<<<<<<<<<<<<<",
"<<<<<<<<<<<<<<<<<<<<<<<<<<<<<<<<<<<<<<<<<<<<<<<<<<<<<<<<<<<<<<<<",
"<<<<<<<<<<<<<<<<<<<<<<<<<<<<<<<<<<<<<<<<<<<<<<<<<<<<<<<<<<<<<<<<",
"<<<<<<<<<<<<<<<<<<<<<<<<<<<<<<<<<<<<<<<<<<<<<<<<<<<<<<<<<<<<<<<<",
"<<<<<<<<<<<<<<<<<<<<<<<<<<<<<<<<<<<<<<<<<<<<<<<<<<<<<<<<<<<<<<<<",
"<<<<<<<<<<<<<<<<<<<<<<<<<<<<<<<<<<<<<<<<<<<<<<<<<<<<<<<<<<<<<<<<",
"<<<<<<<<<<<<<<<<<<<<<<<<<<<<<<<<<<<<<<<<<<<<<<<<<<<<<<<<<<<<<<<<",
"<<<<<<<<<<<<<<<<<<<<<<<<<<<<<<<<<<<<<<<<<<<<<<<<<<<<<<<<<<<<<<<<",
"<<<<<<<<<<<<<<<<<<<<<<<<<<<<<<<<<<<<<<<<<<<<<<<<<<<<<<<<<<<<<<<<",
"<<<<<<<<<<<<<<<<<<<<<<<<<<<<<<<<<<<<<<<<<<<<<<<<<<<<<<<<<<<<<<<<",
"<<<<<<<<<<<<<<<<<<<<<<<<<<<<<<<<<<<<<<<<<<<<<<<<<<<<<<<<<<<<<<<<",
"<<<<<<<<<<<<<<<<<<<<<<<<<<<<<<<<<<<<<<<<<<<<<<<<<<<<<<<<<<<<<<<<",
"<<<<<<<<<<<<<<<<<<<<<<<<<<<<<<<<<<<<<<<<<<<<<<<<<<<<<<<<<<<<<<<<",
"<<<<<<<<<<<<<<<<<<<<<<<<<<<<<<<<<<<<<<<<<<<<<<<<<<<<<<<<<<<<<<<<",
"<<<<<<<<<<<<<<<<<<<<<<<<<<<<<<<<<<<<<<<<<<<<<<<<<<<<<<<<<<<<<<<<",
"<<<<<<<<<<<<<<<<<<<<<<<<<<<<<<<<<<<<<<<<<<<<<<<<<<<<<<<<<<<<<<<<",
"<<<<<<<<<<<<<<<<<<<<<<<<<<<<<<<<<<<<<<<<<<<<<<<<<<<<<<<<<<<<<<<<",
"<<<<<<<<<<<<<<<<<<<<<<<<<<<<<<<<<<<<<<<<<<<<<<<<<<<<<<<<<<<<<<<<",
"<<<<<<<<<<<<<<<<<<<<<<<<<<<<<<<<<<<<<<<<<<<<<<<<<<<<<<<<<<<<<<<<",
"<<<<<<<<<<<<<<<<<<<<<<<<<<<<<<<<<<<<<<<<<<<<<<<<<<<<<<<<<<<<<<<<",
"<<<<<<<<<<<<<<<<<<<<<<<<<<<<<<<<<<<<<<<<<<<<<<<<<<<<<<<<<<<<<<<<",
"<<<<<<<<<<<<<<<<<<<<<<<<<<<<<<<<<<<<<<<<<<<<<<<<<<<<<<<<<<<<<<<<",
"<<<<<<<<<<<<<<<<<<<<<<<<<<<<<<<<<<<<<<<<<<<<<<<<<<<<<<<<<<<<<<<<",
"<<<<<<<<<<<<<<<<<<<<<<<<<<<<<<<<<<<<<<<<<<<<<<<<<<<<<<<<<<<<<<<<",
"<<<<<<<<<<<<<<<<<<<<<<<<<<<<<<<<<<<<<<<<<<<<<<<<<<<<<<<<<<<<<<<<",
"<<<<<<<<<<<<<<<<<<<<<<<<<<<<<<<<<<<<<<<<<<<<<<<<<<<<<<<<<<<<<<<<",
"<<<<<<<<<<<<<<<<<<<<<<<<<<<<<<<<<<<<<<<<<<<<<<<<<<<<<<<<<<<<<<<<",
"<<<<<<<<<<<<<<<<<<<<<<<<<<<<<<<<<<<<<<<<<<<<<<<<<<<<<<<<<<<<<<<<",
"<<<<<<<<<<<<<<<<<<<<<<<<<<<<<<<<<<<<<<<<<<<<<<<<<<<<<<<<<<<<<<<<",
"<<<<<<<<<<<<<<<<<<<<<<<<<<<<<<<<<<<<<<<<<<<<<<<<<<<<<<<<<<<<<<<<",
"<<<<<<<<<<<<<<<<<<<<<<<<<<<<<<       <<<<<<<<<<<<<<<<<<<<<<<<<<<",
"<<<<<<<<<<<<<<<<<<<<<<<<<<<<< *--**** <<<<<<<<<<<<<<<<<<<<<<<<<<",
"<<<<<<<<<<<<<<<<<<<<<<<<<<<< &**---*** <<<<<<<<<<<<<<<<<<<<<<<<<",
"<<<<<<<<<<<<<<<<<<<<<<<<<<< &&**--***** <<<<<<<<<<<<<<<<<<<<<<<<",
"<<<<<<<<<<<<<<<<<<<<<<<<<< **********&* <<<<<<<<<<<<<<<<<<<<<<<<",
"<<<<<<<<<<<<<<<<<<<<<<     **-******&--* <<<<<<<<<<<<<<<<<<<<<<<",
"<<<<<<<<<<<<<<<<<<<<< > ****--&*****&&-* <<<<<<<<<<<<<<<<<<<<<<<",
"<<<<<<<<<<<<<<<<<<<< >>+ ****-&&*******- X<<<<<<<<<<<<<<<<<<<<<<",
"<<<<<<<<<<<<<<<<<<<< > >>   *&-&**--***&&  <<<<<<<<<<<<<<<<<<<<<",
"<<<<<<<<<<<<<<<<<<<< >>>>>>>    ****-**&--  <<<<<<<<<<<<<<<<<<<<",
"<<<<<<<<<<<<<<<<<<<<<#>>>>>>>>>            <<<<<<<<<<<<<<<<<<<<<",
"<<<<<<<<<<<<<<<<<<<<<< >>>>>>> >>>>>>>>> % <<<<<<<<<<<<<<<<<<<<<",
"<<<<<<<<<<<<<<<<<<<<<< >>>>>> >>>>>>>>>> % <<<<<<<<<<<<<<<<<<<<<",
"<<<<<<<<<<<<<<<<<<<<< >>>   >>>>>>   >>> % <<<<<<<<<<<<<<<<<<<<<",
"<<<<<<<<<<<<<<<<<<<<< >> ,,, >>>> ,,, >>   <<<<<<<<<<<<<<<<<<<<<",
"<<<<<<<<<<<<<<<<<<<<< >> , , >>>>X, , >>> <<<<<<<<<<<<<<<<<<<<<<",
"<<<<<<<<<<<<<<<<<<<<< >> ,,, >>>> ,,, >>> <<<<<<<<<<<<<<<<<<<<<<",
"<<<<<<<<<<<<<<<<<<<<< >>>   >>>>>> X >>>> <<<<<<<<<<<<<<<<<<<<<<",
"<<<<<<<<<<<<<<<<<<<<< >>>>>>>>>>>>>>>>>> > <<<<<<<<<<<<<<<<<<<<<",
"<<<<<<<<<<<<<<<<<<<<<< >>>>>>>>>>>>>>>> >> <<<<<<<<<<<<<<<<<<<<<",
"<<<<<<<<<<<<<<<<<<<<<.           >>>>> >>> <<<<<<<<<<<<<<<<<<<<<",
"<<<<<<<<<<<<<<<<<<<<  ,,,,,,,,,,,    >>>>> <<<<<<<<<<<<<<<<<<<<<",
"<<<<<<<<<<<<<<<<<<<< ,,,,,,,,,,,,,,,,  >> <<<<<<<<<<<<<<<<<<<<<<",
"<<<<<<<<<<<<<<<<<<<< ,,,,,,,,,,,,,,,,,,  <<<<<<<<<<<<<<<<<<<<<<<",
"<<<<<<<<<<<<<<<<<<<<  ,,,,,,,,,,,,,,,,,, <<<<<<<<<<<<<<<<<<<<<<<",
"<<<<<<<<<<<<<<<<<<<<<  ,,,,,    o,,,,,,, <<<<<<<<<<<<<<<<<<<<<<<",
"<<<<<<<<<<<<<<<<<<<<<<  ,,,,,,,,,,,,,,, <<<<<<<<<<<<<<<<<<<<<<<<",
"<<<<<<<<<<<<<<<<<<<<<<<    ,,,,,,,,,,   <<<<<<<<<<<<<<<<<<<<<<<<",
"<<<<<<<<<<<<<<<<<<<<<<<<<<            <<<<<<<<<<<<<<<<<<<<<<<<<<",
"<<<<<<<<<<<<<<<<<<<<<<<<<<<<< >>>> <<<<<<<<<<<<<<<<<<<<<<<<<<<<<",
"<<<<<<<<<<<<<<<<<<<<<<<<<<<<< >>>> <<<<<<<<<<<<<<<<<<<<<<<<<<<<<",
"<<<<<<<<<<<<<<<<<<<<<<<<<<   >>>>>>   <<<<<<<<<<<<<<<<<<<<<<<<<<",
"<<<<<<<<<<<<<<<<<<<<<<<   >>>>>>>>>>>;   <<<<<<<<<<<<<<<<<<<<<<<",
"<<<<<<<<<<<<<<<<<<<<<< >>>>>>> >>>>>;;;;; <<<<<<<<<<<<<<<<<<<<<<",
"<<<<<<<<<<<<<<<<<<<<< >>>>>>> >>>>>;;;;;;; <<<<<<<<<<<<<<<<<<<<<",
"<<<<<<<<<<<<<<<<<<<<< >>>>>> >>>>;;;;;;;;; <<<<<<<<<<<<<<<<<<<<<",
"<<<<<<<<<<<<<<<<<<<<< >>>>>>>>>>;;;;;;;;;;; <<<<<<<<<<<<<<<<<<<<",
"<<<<<<<<<<<<<<<<<<<<< >>>>>>>>>;;;;;;;;;;;; <<<<<<<<<<<<<<<<<<<<",
"<<<<<<<<<<<<<<<<<<<<< >> >>>>>;;; ;;;;;;; ; <<<<<<<<<<<<<<<<<<<<",
"<<<<<<<<<<<<<<<<<<<<< > >>>>;;;; ;;;;;;; ;; <<<<<<<<<<<<<<<<<<<<",
"<<<<<<<<<<<<<<<<<<<<< >>>> ;;;; ;;;;;;; ;;; <<<<<<<<<<<<<<<<<<<<",
"<<<<<<<<<<<<<<<<<<<<< >>>> ;;; ;;;;;;;; ;;; <<<<<<<<<<<<<<<<<<<<",
"<<<<<<<<<<<<<<<<<<<<< >>>> ;; ;;;;;;;;; ;;; <<<<<<<<<<<<<<<<<<<<",
"<<<<<<<<<<<<<<<<<<<<< >>>> ; ;;;;;;;;;; ;;; <<<<<<<<<<<<<<<<<<<<",
"<<<<<<<<<<<<<<<<<<<<< >>>> ;;;;;;;;;;;; ;;; <<<<<<<<<<<<<<<<<<<<",
"<<<<<<<<<<<<<<<<<<<<< >> > ;;;;;;;;;;;; ;;; <<<<<<<<<<<<<<<<<<<<",
"<<<<<<<<<<<<<<<<<<<<< > >> ;;;;;;;;;;;; ;;; <<<<<<<<<<<<<<<<<<<<",
"<<<<<<<<<<<<<<<<<<<<<  >>> ;;;;;;;;;; ; ;;; <<<<<<<<<<<<<<<<<<<<",
"<<<<<<<<<<<<<<<<<<<<< >>>> ;;;;;;;;; ;; ; ; <<<<<<<<<<<<<<<<<<<<",
"<<<<<<<<<<<<<<<<<<<<< >>>> ;;;;;;;; ;;:  ;; <<<<<<<<<<<<<<<<<<<<",
"<<<<<<<<<<<<<<<<<<<< >>> > ;;;;;;; ;;:- ;;; <<<<<<<<<<<<<<<<<<<<",
"<<<<<<<<<<<<<<<<<<<< >>>>> ;;;;;; ;;:-- ;;;; <<<<<<<<<<<<<<<<<<<",
"<<<<<<<<<<<<<<<<<<<< >>>>  ;;;;;o;;:--- ;;;; <<<<<<<<<<<<<<<<<<<",
"<<<<<<<<<<<<<<<<<<<<<    < ;;;;;;;:----  ;;; <<<<<<<<<<<<<<<<<<<",
"<<<<<<<<<<<<<<<<<<<<<<<<<< ;;;;;;;:---- <   <<<<<<<<<<<<<<<<<<<<",
"<<<<<<<<<<<<<<<<<<<<<<<<<< ;;;;;;:----- <<<<<<<<<<<<<<<<<<<<<<<<",
"<<<<<<<<<<<<<<<<<<<<<<<<<< ;;;;  -----  <<<<<<<<<<<<<<<<<<<<<<<<",
"<<<<<<<<<<<<<<<<<<<<<<<<<< ;;;;  ----- - <<<<<<<<<<<<<<<<<<<<<<<",
"<<<<<<<<<<<<<<<<<<<<<<<<<< ;;;;  ----- - <<<<<<<<<<<<<<<<<<<<<<<",
"<<<<<<<<<<<<<<<<<<<<<<<<<< ;;;;; ----- -- <<<<<<<<<<<<<<<<<<<<<<",
"<<<<<<<<<<<<<<<<<<<<<<<<<< ;;;;; -- -- -- <<<<<<<<<<<<<<<<<<<<<<",
"<<<<<<<<<<<<<<<<<<<<<<<<<< ;;;;; - --- -- <<<<<<<<<<<<<<<<<<<<<<",
"<<<<<<<<<<<<<<<<<<<<<<<<<< ;;;;; -----   <<<<<<<<<<<<<<<<<<<<<<<",
"<<<<<<<<<<<<<<<<<<<<<<<<<< ;;;;; ----- <<<<<<<<<<<<<<<<<<<<<<<<<",
"<<<<<<<<<<<<<<<<<<<<<<<<<< ;;;;;; ---- <<<<<<<<<<<<<<<<<<<<<<<<<",
"<<<<<<<<<<<<<<<<<<<<<<<<<< ;; ;;; ---- <<<<<<<<<<<<<<<<<<<<<<<<<",
"<<<<<<<<<<<<<<<<<<<<<<<<<< ; ;;;; ----$<<<<<<<<<<<<<<<<<<<<<<<<<",
"<<<<<<<<<<<<<<<<<<<<<<<<<<< ;;;;; ---- <<<<<<<<<<<<<<<<<<<<<<<<<",
"<<<<<<<<<<<<<<<<<<<<<<<<<<< ;;;;; ---- <<<<<<<<<<<<<<<<<<<<<<<<<",
"<<<<<<<<<<<<<<<<<<<<<<<<<<< ;;;;; ---- <<<<<<<<<<<<<<<<<<<<<<<<<",
"<<<<<<<<<<<<<<<<<<<<<<<<<<< ;;;;; ---- <<<<<<<<<<<<<<<<<<<<<<<<<",
"<<<<<<<<<<<<<<<<<<<<<<<<<<< ;;;;; ---- <<<<<<<<<<<<<<<<<<<<<<<<<",
"<<<<<<<<<<<<<<<<<<<<<<<<<<< ;;;;;; --- <<<<<<<<<<<<<<<<<<<<<<<<<",
"<<<<<<<<<<<<<<<<<<<<<<<<<<@;;;;;;= --- <<<<<<<<<<<<<<<<<<<<<<<<<",
"<<<<<<<<<<<<<<<<<<<<<<<<  ;;;;;;  ---- <<<<<<<<<<<<<<<<<<<<<<<<<",
"<<<<<<<<<<<<<<<<<<<<<<< ;;;;;;; ------ <<<<<<<<<<<<<<<<<<<<<<<<<",
"<<<<<<<<<<<<<<<<<<<<<<< ;;;;;;; ------ <<<<<<<<<<<<<<<<<<<<<<<<<",
"<<<<<<<<<<<<<<<<<<<<<<< ;;;;;;  -----  <<<<<<<<<<<<<<<<<<<<<<<<<",
"<<<<<<<<<<<<<<<<<<<<<<<<     O<<      <<<<<<<<<<<<<<<<<<<<<<<<<<"
};
