/* XPM */
static char *result[] = {
/* columns rows colors chars-per-pixel */
"160 24 28 1 ",
"  c black",
". c #010000",
"X c #000101",
"o c #030502",
"O c #050204",
"+ c #050304",
"@ c #0F0701",
"# c #03090D",
"$ c #C52A2A",
"% c #E44141",
"& c #E64242",
"* c #FEAD4E",
"= c #FFAD4E",
"- c #FFC64E",
"; c #FFC84E",
": c #3DA8D9",
"> c #42AADA",
", c #6EC5ED",
"< c #97D184",
"1 c #9BD488",
"2 c #C5F9B3",
"3 c #C8FDB6",
"4 c #AB92E0",
"5 c #AF94E0",
"6 c #ECB5E5",
"7 c #EEB6E5",
"8 c #F2B9E9",
"9 c None",
/* pixels */
"9999999999999999999999999999999999999999999999999999999999999999999999999999999999999999999999999999999999999999999999999999999999999999999999999999999999999999",
"9999999999999999999999999999999999999999999999999999999999999999999999999999999999999999999999999999999999999999999999999999999999999999999999999999999999999999",
"9999999999999999999999999999999999999999999999999999999999999999999999999999999999999999999999999999999999999999999999999999999999999999999999999999999999999999",
"9999999999999999999999999999999999999999999999999999999999999999999999999999999999999999999999999999999999999999999999999999999999999999999999999999999999999999",
"9999999999999999999999999999999999999999999999999999999999999999999999999999999999999999999999999999999999999999999999999999999999999999999999999999999999999999",
"9999999999999999999999999999999999999999999999999999999999999999999999999999999999999999999999999999999999999999999999999999999999999999999999999999999999999999",
"9999999999999999999999999999999999999999999999999999999999999999999999999999999999999999999999999999999999999999999999999999999999999999999999999999999999999999",
"99999999    999999999999    99999999999       999999999      99999999  999999  999999          999999999      999999          9999999999    999999999999     999",
"999999  3333  999999999  $$ 9999999999 ,::,,,, 999999  444446  99999 == 9999 == 9999 7855888888 999999  333333 99999 $$$$$$$$$ 9999999  ====  99999999  ,,,,, 99",
"99999 33333313 9999999  $&& 999999999 ,:,,,,,,, 9999 4444444464 9999 == 9999 == 9999 7588888888 99999 3<<33333 99999 $$$$$$$%%$ 99999 =--===== 999999 ,,,,,>>, 9",
"9999 3333  3313 99999  $$$& 99999999 ,,,    ,,, 9999 444    446 9999 == 9999 == 9999 78+        9999 3<33     9999999        $% 9999 =-=    === 9999 ,,,    ,>#9",
"9999 333 99 331 9999  $$$$& 99999999 ,, 9999 ,, 9999    9999 46 9999 == 9999 == 9999 78+999999999999 33  9999999999999999999 $$ 9999 == 9999 == 9999 ,, 9999 ,, ",
"9999 33 9999 31 9999     $$ 99999999   99999 ,, 999999999999 44 9999 ==      == 9999 78+99999999999 333 99999999999999999999 $$ 9999 === 99 === 9999 ,, 9999 ,, ",
"9999 33 9999 33 99999999 $$ 999999999999999 ,,, 9999999999  444 9999 ;========= 9999 788+    999999 33 99999999999999999999 $$$ 99999 ===..=== 99999 ,,,#   ,,, ",
"9999 33 9999 33 99999999 $$ 99999999999999 ,,, 999999999  4444 99999 =;======== 9999 88888877 99999 33       99999999999999 $$$ 999999 ====== 9999999 ,,,,,,,,, ",
"9999 33 9999 33 99999999 $$ 9999999999999 ,,, 9999999999 44444 999999        == 99999  7878885O9999 333333333 999999999999 $$$ 9999999  ====  99999999  ,,,,,,, ",
"9999 33 9999 33 99999999 $$ 999999999999 ,,, 999999999999   44 9999999999999 == 9999999     885 999 3333333<<3 99999999999 $$$ 999999  ======  999999999     ,, ",
"9999 33 9999 33 99999999 $$ 99999999999 ,,, 9999999999999999 44 999999999999 == 999999999999 88+999 333ooooo3<3 999999999 $$$ 999999  ===@@===  999999999999 ,, ",
"9999 33 9999 33 99999999 $$ 9999999999 ,,, 99999999999999999 44 999999999999 == 999999999999 88+999 33 99999o33 999999999 $$$ 999999 === 99 === 999999999999 ,, ",
"9999 333 99 333 99999999 $$ 999999999 ,,, 99999999999   9999 44 999999999999 == 999999999999 88+999 33o99999o33 99999999 $$$ 9999999 == 9999 == 9999   9999 ,,, ",
"9999 3133  3333 9999     $$     9999 ,,,,       9999 444    446 999999999999 =; 9999       +888 999 3<3    o233 99999999 $$$ 9999999 ==*    *-= 9999 ,,    ,>, 9",
"99999 31133333 99999 $&$$$$$$$$ 9999 ,,,,,,,,,: 9999 4444444464 999999999999 =; 9999 788888888 99999 3<<3333333 9999999 $%$ 99999999 ===***--== 9999 ,,,,,>>,, 9",
"999999  3333  999999 $&&$$$$$$$ 9999 ,,,,,,,::, 9999  44444464 9999999999999 =; 9999 78888888 9999999o33333333 99999999 $%% 999999999 ======== 999999 ,,,,,, X99",
"99999999    99999999            9999            999999        99999999999999    9999        O999999999        999999999    99999999999        99999999      9999"
};
