/* XPM */
static char *result[] = {
/* columns rows colors chars-per-pixel */
"64 64 171 2 ",
"   c #3E232D",
".  c #3E2436",
"X  c #41252F",
"o  c #4B2B34",
"O  c #45283C",
"+  c #4B2B3A",
"@  c #432737",
"#  c #512E38",
"$  c #543037",
"%  c #5B3435",
"&  c #513A3B",
"*  c #613633",
"=  c #663931",
"-  c #6A3E37",
";  c #6D433B",
":  c #3F684B",
">  c #3E734E",
",  c #5D4455",
"<  c #714840",
"1  c #764F48",
"2  c #7E5A54",
"3  c #446047",
"4  c #407651",
"5  c #427A53",
"6  c #487A57",
"7  c #4C7D5F",
"8  c #735E67",
"9  c #4E7F61",
"0  c #83615D",
"q  c #458157",
"w  c #468459",
"e  c #4A845B",
"r  c #498A5D",
"t  c #4A8556",
"y  c #57995F",
"u  c #599A5E",
"i  c #619F5C",
"p  c #67A45B",
"a  c #72AA57",
"s  c #75AD5E",
"d  c #7AB055",
"f  c #7EB25D",
"g  c #4C8D60",
"h  c #578966",
"j  c #568669",
"k  c #4D9262",
"l  c #509466",
"z  c #55946B",
"x  c #5D8A75",
"c  c #5F9675",
"v  c #5C9B71",
"b  c #5F9C78",
"n  c #658F71",
"m  c #6D9B75",
"M  c #639479",
"N  c #68927F",
"B  c #6A9C7F",
"V  c #679675",
"C  c #6FA863",
"Z  c #67A264",
"A  c #76AC69",
"S  c #6FA67F",
"D  c #6BA571",
"F  c #74AA75",
"G  c #71A879",
"H  c #88B86C",
"J  c #8BB978",
"K  c #90BD76",
"L  c #679F82",
"P  c #6D9688",
"I  c #6F9D81",
"U  c #71998B",
"Y  c #709982",
"T  c #66A181",
"R  c #6BA385",
"E  c #6EA588",
"W  c #73A482",
"Q  c #73A984",
"!  c #7EAE81",
"~  c #74A28B",
"^  c #7EA289",
"/  c #7AAD8A",
"(  c #7FB182",
")  c #7EA59E",
"_  c #7AAC99",
"`  c #7AA796",
"'  c #8E8688",
"]  c #A09F9F",
"[  c #88B683",
"{  c #95BE8D",
"}  c #88B696",
"|  c #8BB890",
" . c #85B497",
".. c #93BB94",
"X. c #91BC9E",
"o. c #82ACA2",
"O. c #87B4A7",
"+. c #97B4A8",
"@. c #9AB7BD",
"#. c #99BFB8",
"$. c #99B6B6",
"%. c #A0A0A0",
"&. c gray",
"*. c #A6CA8E",
"=. c #A7CB91",
"-. c #9DC3A8",
";. c #ADCEA4",
":. c #A6C8A8",
">. c #AFCEAE",
",. c #A0C5AB",
"<. c #ABCAB5",
"1. c #A4C4BA",
"2. c #AFCEB8",
"3. c #AFC5B5",
"4. c #B0CFB9",
"5. c #B4D1BD",
"6. c #C5DCB6",
"7. c #9CB8C2",
"8. c #9FC2C1",
"9. c #A2C4C9",
"0. c #B1CBC5",
"q. c #BDD2C4",
"w. c #B9D4C5",
"e. c #AAC4D2",
"r. c #B5CDD5",
"t. c #B9D2D7",
"y. c #BAD3DB",
"u. c #BACEE7",
"i. c #CECCCD",
"p. c #C8C1C4",
"a. c #D5CFCE",
"s. c #C1D6CF",
"d. c #C4DBCB",
"f. c #C1D8D7",
"g. c #CBDDD4",
"h. c #CBDDDC",
"j. c #DFDDDD",
"k. c #CEE1C8",
"l. c #CDE0D7",
"z. c #D6E5DB",
"x. c #CEDEE4",
"c. c #CCDDEB",
"v. c #C6D9E5",
"b. c #D2DFEA",
"n. c #C4D6F3",
"m. c #CADBF5",
"M. c #CBDBFC",
"N. c #D1DFFC",
"B. c #D5E4E4",
"V. c #D4E2EB",
"C. c #DEE7EB",
"Z. c #DBE9E0",
"A. c #D4E2F6",
"S. c #D5E2FD",
"D. c #DBE6FD",
"F. c #DEE8FD",
"G. c #DAE5F5",
"H. c #E5E5E5",
"J. c gray91",
"K. c #E0EBED",
"L. c #EBF3EE",
"P. c #E3ECFD",
"I. c #E8EFFE",
"U. c #EDF3FE",
"Y. c #E8F1F2",
"T. c #F5F9F6",
"R. c #F8FBF7",
"E. c #F2F6FE",
"W. c #F6F9FF",
"Q. c #FFFFFF",
"!. c None",
/* M_PIxels */
"!.!.!.!.!.!.!.!.!.!.!.!.!.!.!.!.!.!.!.!.!.!.!.!.!.!.!.!.!.!.!.!.!.!.!.!.!.!.!.!.!.!.!.!.!.!.!.!.!.!.!.!.!.!.!.!.!.!.!.!.!.!.!.!.",
"!.!.!.!.!.!.!.!.!.!.!.!.!.!.!.!.!.!.!.!.!.!.!.!.!.!.!.!.!.!.!.!.!.!.!.!.!.!.!.!.!.!.!.!.!.!.!.!.!.!.!.!.!.!.!.!.!.!.!.!.!.!.!.!.",
"!.!.!.!.!.!.!.!.!.!.!.!.!.!.!.!.!.!.!.!.!.!.!.!.!.!.!.!.!.!.!.!.!.!.!.!.!.!.!.!.!.!.!.!.!.!.!.!.!.!.!.!.!.!.!.!.!.!.!.!.!.!.!.!.",
"!.!.!.!.!.!.!.!.!.!.!.!.!.!.!.!.!.!.!.!.!.!.!.!.!.!.!.!.!.!.!.!.!.!.!.!.!.Q.W.!.!.!.!.!.!.!.!.!.!.!.!.!.!.!.!.!.!.!.!.!.!.!.!.!.",
"!.!.!.!.!.!.!.!.!.!.!.!.!.!.!.!.!.!.!.!.!.!.!.!.!.!.!.W.I.D.!.!.!.!.!.!.Q.I.D.P.!.!.!.!.!.!.!.!.!.!.!.!.!.!.!.!.!.!.!.!.!.!.!.!.",
"Q.D.!.!.!.!.!.!.!.!.!.!.!.!.M.M.M.S.!.!.!.!.!.!.!.!.F.D.E.E.M.!.!.!.!.t h.Q.Q.W.F.!.!.!.!.!.M.S.D.D.!.!.!.!.!.!.!.!.!.!.!.!.!.!.",
"F.W.D.F.U.!.!.!.!.!.!.!.!.M.U.Q.Q.U.M.!.!.!.!.!.!.D.D.E.D.N.U.D.!.!.!.g.z.F W.Q.Q.M.!.!.M.M.I.Q.Q.Q.M.M.!.!.!.!.!.!.!.!.!.!.F.F.",
"E.S.S.E.D.W.!.!.!.!.!.!.D.Q.Q.Q.Q.M.M.S.!.!.!.!.6 9.Q.Q.Q.Q.Q.E.P.!.S E p :._ B.E.U !.M.S.W.Q.Q.Q.M.M.D.M.!.!.!.!.!.!.!.!.D.Q.W.",
"F.F.E.Q.Q.P.!.!.!.!.!.F.Q.Q.Q.M.M.M.Q.W.S.!.!.h | h.U.k.L.Q.Q.Q.I.P.Y.! q.w.0.x.N > u.S.Q.Q.Q.M.M.M.Q.W.M.!.!.!.!.!.!.!.d.U.Q.E.",
"Q.Q.Q.Q.Q.Q.h.!.!.!.> k M.Q.Q.Q.Q.Q.Q.Q.Q.M.!.z.W.D.{ p k.I.Q.Q.Q.E.y.A c M B b w h j z M.Q.Q.Q.Q.Q.Q.Q.E.N.!.!.!.!.!.5 Z S.Q.Q.",
"g.Q.Q.Q.Q.Q.T.!.!.> k d M.Q.Q.Q.Q.Q.Q.Q.Q.W.F.1.y.| d w.c.1.F.Q.Q.Q.e.m G 2.Z.B.0.> g a M.Q.Q.Q.Q.Q.Q.Q.Q.E.P.!.!.!.> <.6.I.B.;.",
";.I.E.Q.Q.Q.Q.$.!.> Q.Q.Q.M.d k Q.Q.Q.Q.Q.Q.I.S D ..*.! y Q } W.r.@.4 Y  .Q x.0.h > Q.Q.Q.M.d k Q.Q.Q.Q.Q.Q.F.!.!.!.3.Q.D.V.[ p ",
"v.1.e.E.Q.Q.W.7.> Q.Q.M.M.d k d Q.M.Q.Q.Q.Q.W.M.! C.U.l.} l.U.b.x 4 > 6 e g v z > Q.Q.M.M.d k d Q.M.Q.Q.Q.Q.Q.M.!.w Q A.E K K g.",
"F z v z.Q.S.m.4 k k M.k d d Q.M.M.k M.Q.Q.Q.Q.M.> m P U ^ U P L w 5 > : 5 q r > k k M.k d d Q.M.M.k M.Q.Q.Q.Q.M.> Q k b a l s F ",
"k <.R.W.S.7 6 Q.k k k d k d k d k k k Q.Q.M.M.> > k k k k k k k k k [ q.7 n M Q.k k k d k d k d k k k Q.Q.M.M.> > R.H l R.R.R.w.",
"R.G.n.n.j > > Q.Q.d k Q.Q.Q.Q.k k Q.Q.Q.M.> > > > p } 2.Q.Q.Q.W.g.K.c.o.> +.V.Q.Q.d k Q.Q.Q.Q.k k Q.Q.Q.M.> > > > D.m.f 6 n.n.A.",
"> 5 > r k k > Q.M.M.d > M.M.M.Q.Q.M.M.M.> > > > > > d.d.K.W.Q.b.M ) o.q > 5 > Q.M.M.d > M.M.M.Q.Q.M.M.M.> > > > > > H d a > > 5 ",
"/ / / / / / M.M.M.d d d > > > > > > > k k k > > > > k k R y.F.M q w q q > k M.M.M.d d d > > > > > > > k k k > > > > s d k y k v ",
"Q.Q.Q.Q.U.q.> k d d d k k k k k k k k k k k k > Q.> k k k k k k k k r > > w.> k d d d k k k k k k k k k k k k > Q.> -.=.k C } 5.",
"l.E.Q.U.$.> k Q.Q.k d k d k k Q.Q.Q.Q.Q.Q.Q.Q.Q.M.> > r r g k k k k q q n > k Q.Q.k d k d k k Q.Q.Q.Q.Q.Q.Q.Q.Q.M.> > Q.O.,.4.4.",
"T t.P.$.> k Q.Q.Q.Q.Q.k k Q.Q.Q.Q.Q.Q.Q.M.> M.M.k > > > w q k k -.d.Q q.> k Q.Q.Q.Q.Q.k k Q.Q.Q.Q.Q.Q.Q.M.> M.M.k > > > O.X.k k ",
"k L ` z > k M.M.M.Q.Q.M.Q.k k k M.Q.Q.M.> k > k > > > > 5 w k Q L.Q.z.E.> k M.M.M.Q.Q.M.Q.k k k M.Q.Q.M.> k > k > > > U k k k k ",
"k k k k > k k k k M.M.k k k k k k M.M.> k > k > k > > U.U.W.} 4.Q.E.b.o.> k k k k M.M.k k k k k k M.M.> k > k > k > > r 5 g w k ",
"w w k Q.Q.Q.k k > k > k k k k k k k k k k k k k > > > 7.7.V.U.U.U.r.) Q.Q.Q.k k > k > k k k k k k k k k k k k k > > > 5 r 5 r q ",
"q q r Q.Q.Q.k k k > k > k > k k k k k k k k k > k > > > 5 x P P U 9 q Q.Q.Q.k k k > k > k > k k k k k k k k k > k > > > > > > > ",
"6 g k Q.Q.Q.d k k k > k > k > k > k k k k k k k > > Q.> > k > > B k 5 Q.Q.Q.d k k k > k > k > k > k k k k k k k > > Q.> > 4 6 6 ",
"W.W.-.M.Q.Q.k d k k k > > > > > k > k k k Q.Q.k Q.Q.Q.Q.> k k k B Q 4.M.Q.Q.k d k k k > > > > > k > k k k Q.Q.k Q.Q.Q.Q.> / W.W.",
"e.b.E.M.Q.Q.Q.k d k k k > > > > > k k k Q.Q.Q.Q.Q.M.M.M.> R k r  .c.F.M.Q.Q.Q.k d k k k > > > > > k k k Q.Q.Q.Q.Q.M.M.M.> l.e.e.",
"5 U @.> M.Q.Q.Q.k d k k k Q.Q.Q.Q.Q.k k Q.Q.Q.Q.M.k k > > > l 3.} ` U > M.Q.Q.Q.k d k k k Q.Q.Q.Q.Q.k k Q.Q.Q.Q.M.k k > > > k 5 ",
"r q 4 > > Q.Q.Q.Q.k d Q.Q.M.M.M.M.Q.Q.Q.Q.Q.M.M.> k > > > > g B.>.q 5 > > Q.Q.Q.Q.k d Q.Q.M.M.M.M.Q.Q.Q.Q.Q.M.M.> k > > > > k k ",
"k k > > M.M.M.Q.Q.Q.Q.Q.k k > > > M.M.M.M.M.> > k > k > > > > ` R.k > > M.M.M.Q.Q.Q.Q.Q.k k > > > M.M.M.M.M.> > k > k > > > > k ",
"k > Q.Q.M.> > M.M.M.M.M.k k k k > > > > > > > k > k > k > > > 1.$.> Q.Q.M.> > M.M.M.M.M.k k k k > > > > > > > k > k > k > > > k ",
"f.> Q.Q.Q.> > > > > > k k k k k k k > > > k k > k > Q.> > > > E...> Q.Q.Q.> > > > > > k k k k k k k > > > k k > k > Q.> > > > z.",
"8.> M.Q.Q.Q.d k k k k k k k k k k k k k k k k k Q.Q.Q.M.> > > U h.> M.Q.Q.Q.d k k k k k k k k k k k k k k k k k Q.Q.Q.M.> > > U.",
"l > > M.Q.Q.Q.d k k k k k k k k k k k k k k Q.Q.Q.Q.M.> > > > 4 w > > M.Q.Q.Q.d k k k k k k k k k k k k k k Q.Q.Q.Q.M.> > > > 9.",
"k > > k M.M.Q.Q.Q.k k Q.Q.Q.Q.Q.M.k k k k M.M.M.M.M.> > k > Q.d.I > > k M.M.Q.Q.Q.k k Q.Q.Q.Q.Q.M.k k k k M.M.M.M.M.> > k > Q.k ",
"r > > > k k M.M.k k M.Q.Q.Q.Q.M.k k k k k k k > k > > > > Q.M.W.~ > > > k k M.M.k k M.Q.Q.Q.Q.M.k k k k k k k > g > > > > Q.M.v ",
"> > > > > k k k k k k M.M.M.M.k k k k k k > > > > > > > Q.M.> 1.> > > > > k k k k k k M.M.M.M.k k k k k k > > > > > > > Q.M.4 +.",
"> > > > > > > > > k k k k k k k k k k k k k k k k Q.Q.Q.M.> > > > > > > > > > > > k k k k k k k k k k k k k k k k Q.Q.Q.m.> 4 4 ",
"> Q.> k k k k k k Q.Q.k k k k k k k k k k k k k Q.Q.k k k > > > > Q.> k k k k k k Q.Q.k k k k k k k k k k k k k Q.Q.k g g > > > ",
"> Q.Q.Q.k > Q.M.M.Q.Q.Q.Q.Q.Q.> > > > k d d Q.Q.Q.M.k > > > > > > Q.Q.Q.k > Q.M.M.Q.Q.Q.Q.Q.Q.> > > > k d d Q.Q.Q.M.k > > > > > ",
"> Q.Q.Q.Q.k > > > M.M.M.Q.> > > > > k Q.Q.Q.M.M.k > > > > > > > > Q.Q.Q.Q.k > > > M.M.M.Q.> > > > > k Q.Q.Q.M.M.k > > > > > > > ",
"> M.Q.Q.Q.k > > > > > > > > k M.M.M.M.M.M.M.M.M.M.> > k k > > > > M.Q.Q.Q.k > > > > > > > > k M.M.M.M.M.M.M.M.M.M.> > k k > > > ",
"> M.Q.Q.M.M.k > > > > > > > > > > > > > > > > > > k k k k k > > 3 M.Q.Q.M.M.k > > > > > > > > > > > > > > > > > > k k k k k > > ",
"> k M.Q.Q.Q.Q.k > > > > > > > > > > k k k k Q.Q.Q.Q.Q.M.k k > > & k M.Q.Q.Q.Q.k > > > > > > > > > > k k k k Q.Q.Q.Q.Q.M.k k > > ",
"> k k M.M.Q.Q.Q.Q.k k k k Q.Q.k k k k k Q.Q.Q.Q.M.M.d k k k > > & k k M.M.Q.Q.Q.Q.k k k k Q.Q.k k k k k Q.Q.Q.Q.M.M.d k k k > > ",
": > k k d M.M.k k k k Q.M.M.M.Q.Q.k Q.M.M.M.M.M.k k k k > > > > o > k k d M.M.k k k k Q.M.M.M.Q.Q.k Q.M.M.M.M.M.k k k k > > > > ",
"O O > > > k k M.M.k k k k k k k k k k k k k k k k k > > > > > X $ X > > > k k M.M.k k k k k k k k k k k k k k k k k > > > > > O ",
"+ + + > > > > k k k k k k k > > k k k k k k k k > > > > > 4 X o O !.!.> > > > k k k k k k k > > k k k k k k k k > > > > > > # + ",
"$ $ % + > > > > > k k k k > > > > > > > > > > > > > > > > 8 ' ] %.3.i.i.> > > > > k k k k > > > > > > > > > > > > > > > > = = % ",
"% # % o O H.> > > > > > > > > > > > > > > > > > > > > > H.H.H.H.H.H.H.H.H.H.> > > > > > > > > > > > > > > > > > > > > > = = = * ",
"= # % # O H.H.H.> > > > > > O O O O O O > > !.!.H.H.H.H.H.H.H.H.H.H.H.!.!.!.!.!.> > > > > > O O O O O O > > H.H.H.H.H.= # = = = ",
"= $ % + O 0 H.H.H.> > > O O O O O O O O H.H.H.H.!.!.!.!.!.!.!.!.!.!.!.!.!.!.!.!.!.> > > O O O O O O O O H.H.H.H.H.H.- + + = = = ",
"= $ O O O + 2 H.H.H.H.= = = = O = O = O H.H.H.H.H.!.!.!.!.!.!.!.!.!.!.!.!.!.!.!.!.!.H.= = = = O = O = O H.H.H.H.H.H.a.i.p.= % $ ",
"% O O O * H.j.H.H.H.H.= = = = O = O = O H.H.H.H.H.!.!.!.!.!.!.!.!.!.!.!.!.!.!.!.!.H.H.= = = = O = O = O H.H.H.H.H.H.H.H.= = * # ",
"O O O O O = H.H.H.H.H.= = = = = = O = O O H.H.H.H.H.!.!.!.!.!.!.!.!.!.!.!.!.!.H.H.H.H.= = = = = = O = O O H.H.H.H.H.H.H.= O O O ",
"H.H.H.H.8 , H.H.H.H.= O = = = = = O = O O H.H.H.H.H.H.H.!.!.!.!.!.!.!.!.!.!.J.J.H.J.= O = = = = = O = O O J.H.H.H.H.H.H.; H.H.H.",
"H.H.H.H.J.H.H.H.H.= O O = = = = = O = O O = H.H.H.H.H.H.!.!.!.!.!.!.!.!.!.!.J.J.J.= O O = = = = = O = O O ; J.H.H.H.H.H.J.H.H.H.",
"H.H.H.H.H.H.H.H.H.H.H.H.= = O = = O O O O O = H.H.H.H.H.!.!.!.!.!.!.!.!.!.J.J.J.J.J.J.J.= = O = = O O O O O - J.J.J.J.!.H.H.H.H.",
"!.!.!.!.!.H.H.H.H.H.H.= = = O = O O O O = H.H.H.H.H.H.J.!.!.!.!.!.!.!.!.!.J.J.J.J.J.J.= = = O = O O O O = J.J.J.J.J.J.J.!.!.!.!.",
"!.!.!.!.!.!.H.H.H.H.H.= O O O O O O O O O = H.H.H.H.H.!.!.!.!.!.!.!.!.!.!.J.J.J.J.J.J.= O O O O O O O O O 1 J.J.J.J.J.!.!.!.!.!.",
"!.!.!.!.!.!.H.H.H.H.H.= H.H.H.H.H.H.H.H.O O H.H.H.!.!.!.!.!.!.!.!.!.!.!.!.!.J.J.J.J.J.= J.J.J.J.J.J.J.J.+ O H.J.J.J.J.!.!.!.!.!.",
"!.!.!.!.!.!.!.H.H.H.H.H.H.H.H.H.H.H.H.H.H.H.H.H.!.!.!.!.!.!.!.!.!.!.!.!.!.!.J.J.J.J.J.J.J.J.J.J.J.J.J.J.J.J.J.J.J.J.!.!.!.!.!.!.",
"!.!.!.!.!.!.!.!.!.!.!.H.H.H.H.H.H.H.H.H.H.H.!.!.!.!.!.!.!.!.!.!.!.!.!.!.!.!.!.!.!.!.J.J.J.J.J.J.J.J.J.J.J.J.J.J.!.!.!.!.!.!.!.!."
};
